<mxfile host="app.diagrams.net" modified="2024-02-11T20:04:06.741Z" agent="Mozilla/5.0 (X11; Linux x86_64) AppleWebKit/537.36 (KHTML, like Gecko) Chrome/121.0.0.0 Safari/537.36" etag="FnSQ2U0vVEuwmv7ERgFh" version="23.1.2" type="github">
  <diagram id="C5RBs43oDa-KdzZeNtuy" name="Page-1">
    <mxGraphModel dx="1850" dy="504" grid="1" gridSize="10" guides="1" tooltips="1" connect="1" arrows="1" fold="1" page="1" pageScale="1" pageWidth="827" pageHeight="1169" math="0" shadow="0">
      <root>
        <mxCell id="WIyWlLk6GJQsqaUBKTNV-0" />
        <mxCell id="WIyWlLk6GJQsqaUBKTNV-1" parent="WIyWlLk6GJQsqaUBKTNV-0" />
        <mxCell id="F2UnVNd6zi74cSoZj-aa-0" value="Resource" style="swimlane;fontStyle=1;align=center;verticalAlign=top;childLayout=stackLayout;horizontal=1;startSize=26;horizontalStack=0;resizeParent=1;resizeParentMax=0;resizeLast=0;collapsible=1;marginBottom=0;whiteSpace=wrap;html=1;" parent="WIyWlLk6GJQsqaUBKTNV-1" vertex="1">
          <mxGeometry x="499" y="90" width="160" height="34" as="geometry" />
        </mxCell>
        <mxCell id="F2UnVNd6zi74cSoZj-aa-2" value="" style="line;strokeWidth=1;fillColor=none;align=left;verticalAlign=middle;spacingTop=-1;spacingLeft=3;spacingRight=3;rotatable=0;labelPosition=right;points=[];portConstraint=eastwest;strokeColor=inherit;" parent="F2UnVNd6zi74cSoZj-aa-0" vertex="1">
          <mxGeometry y="26" width="160" height="8" as="geometry" />
        </mxCell>
        <mxCell id="F2UnVNd6zi74cSoZj-aa-9" value="" style="edgeStyle=orthogonalEdgeStyle;rounded=0;orthogonalLoop=1;jettySize=auto;html=1;endArrow=block;endFill=0;" parent="WIyWlLk6GJQsqaUBKTNV-1" source="F2UnVNd6zi74cSoZj-aa-5" target="F2UnVNd6zi74cSoZj-aa-2" edge="1">
          <mxGeometry relative="1" as="geometry">
            <Array as="points">
              <mxPoint x="584" y="170" />
              <mxPoint x="584" y="170" />
            </Array>
          </mxGeometry>
        </mxCell>
        <mxCell id="F2UnVNd6zi74cSoZj-aa-5" value="Game" style="swimlane;fontStyle=1;align=center;verticalAlign=top;childLayout=stackLayout;horizontal=1;startSize=26;horizontalStack=0;resizeParent=1;resizeParentMax=0;resizeLast=0;collapsible=1;marginBottom=0;whiteSpace=wrap;html=1;" parent="WIyWlLk6GJQsqaUBKTNV-1" vertex="1">
          <mxGeometry x="414" y="220" width="350" height="180" as="geometry" />
        </mxCell>
        <mxCell id="F2UnVNd6zi74cSoZj-aa-6" value="+ id: String&lt;br&gt;+ playerCount: Number&lt;br&gt;+ participants: WebSocket[]&lt;br&gt;+ owner: String&lt;br&gt;+ running: Boolean" style="text;strokeColor=none;fillColor=none;align=left;verticalAlign=top;spacingLeft=4;spacingRight=4;overflow=hidden;rotatable=0;points=[[0,0.5],[1,0.5]];portConstraint=eastwest;whiteSpace=wrap;html=1;" parent="F2UnVNd6zi74cSoZj-aa-5" vertex="1">
          <mxGeometry y="26" width="350" height="84" as="geometry" />
        </mxCell>
        <mxCell id="F2UnVNd6zi74cSoZj-aa-7" value="" style="line;strokeWidth=1;fillColor=none;align=left;verticalAlign=middle;spacingTop=-1;spacingLeft=3;spacingRight=3;rotatable=0;labelPosition=right;points=[];portConstraint=eastwest;strokeColor=inherit;" parent="F2UnVNd6zi74cSoZj-aa-5" vertex="1">
          <mxGeometry y="110" width="350" height="8" as="geometry" />
        </mxCell>
        <mxCell id="F2UnVNd6zi74cSoZj-aa-8" value="+ joinGame(playerId:String): void &lt;b&gt;throws&lt;/b&gt;&amp;nbsp;GameFullErr&lt;br&gt;+ startGame(ownerId: String): void &lt;b&gt;throws&lt;/b&gt;&amp;nbsp;BadPermissionsErr&lt;br&gt;+ signalGameReadiness(): void" style="text;strokeColor=none;fillColor=none;align=left;verticalAlign=top;spacingLeft=4;spacingRight=4;overflow=hidden;rotatable=0;points=[[0,0.5],[1,0.5]];portConstraint=eastwest;whiteSpace=wrap;html=1;" parent="F2UnVNd6zi74cSoZj-aa-5" vertex="1">
          <mxGeometry y="118" width="350" height="62" as="geometry" />
        </mxCell>
        <mxCell id="F2UnVNd6zi74cSoZj-aa-10" value="Service" style="swimlane;fontStyle=1;align=center;verticalAlign=top;childLayout=stackLayout;horizontal=1;startSize=26;horizontalStack=0;resizeParent=1;resizeParentMax=0;resizeLast=0;collapsible=1;marginBottom=0;whiteSpace=wrap;html=1;" parent="WIyWlLk6GJQsqaUBKTNV-1" vertex="1">
          <mxGeometry x="150" y="90" width="160" height="34" as="geometry" />
        </mxCell>
        <mxCell id="F2UnVNd6zi74cSoZj-aa-11" value="" style="line;strokeWidth=1;fillColor=none;align=left;verticalAlign=middle;spacingTop=-1;spacingLeft=3;spacingRight=3;rotatable=0;labelPosition=right;points=[];portConstraint=eastwest;strokeColor=inherit;" parent="F2UnVNd6zi74cSoZj-aa-10" vertex="1">
          <mxGeometry y="26" width="160" height="8" as="geometry" />
        </mxCell>
        <mxCell id="F2UnVNd6zi74cSoZj-aa-12" value="GameService" style="swimlane;fontStyle=1;align=center;verticalAlign=top;childLayout=stackLayout;horizontal=1;startSize=26;horizontalStack=0;resizeParent=1;resizeParentMax=0;resizeLast=0;collapsible=1;marginBottom=0;whiteSpace=wrap;html=1;" parent="WIyWlLk6GJQsqaUBKTNV-1" vertex="1">
          <mxGeometry x="55" y="220" width="350" height="120" as="geometry" />
        </mxCell>
        <mxCell id="F2UnVNd6zi74cSoZj-aa-13" value="+ gameRegistry: Map&amp;lt;id, Game&amp;gt;" style="text;strokeColor=none;fillColor=none;align=left;verticalAlign=top;spacingLeft=4;spacingRight=4;overflow=hidden;rotatable=0;points=[[0,0.5],[1,0.5]];portConstraint=eastwest;whiteSpace=wrap;html=1;" parent="F2UnVNd6zi74cSoZj-aa-12" vertex="1">
          <mxGeometry y="26" width="350" height="24" as="geometry" />
        </mxCell>
        <mxCell id="F2UnVNd6zi74cSoZj-aa-14" value="" style="line;strokeWidth=1;fillColor=none;align=left;verticalAlign=middle;spacingTop=-1;spacingLeft=3;spacingRight=3;rotatable=0;labelPosition=right;points=[];portConstraint=eastwest;strokeColor=inherit;" parent="F2UnVNd6zi74cSoZj-aa-12" vertex="1">
          <mxGeometry y="50" width="350" height="8" as="geometry" />
        </mxCell>
        <mxCell id="F2UnVNd6zi74cSoZj-aa-15" value="+ creagteGame(ownerId: String): String&lt;br&gt;+ getGame(gameId: String): Game &lt;b&gt;throws&lt;/b&gt;&amp;nbsp;GameNotFoundErr &lt;br&gt;- registerGame(game: Game): String" style="text;strokeColor=none;fillColor=none;align=left;verticalAlign=top;spacingLeft=4;spacingRight=4;overflow=hidden;rotatable=0;points=[[0,0.5],[1,0.5]];portConstraint=eastwest;whiteSpace=wrap;html=1;" parent="F2UnVNd6zi74cSoZj-aa-12" vertex="1">
          <mxGeometry y="58" width="350" height="62" as="geometry" />
        </mxCell>
        <mxCell id="F2UnVNd6zi74cSoZj-aa-16" value="" style="edgeStyle=orthogonalEdgeStyle;rounded=0;orthogonalLoop=1;jettySize=auto;html=1;endArrow=block;endFill=0;exitX=0.5;exitY=0;exitDx=0;exitDy=0;entryX=0.5;entryY=1;entryDx=0;entryDy=0;" parent="WIyWlLk6GJQsqaUBKTNV-1" source="F2UnVNd6zi74cSoZj-aa-12" target="F2UnVNd6zi74cSoZj-aa-10" edge="1">
          <mxGeometry relative="1" as="geometry">
            <mxPoint x="390" y="176" as="sourcePoint" />
            <mxPoint x="390" y="80" as="targetPoint" />
            <Array as="points">
              <mxPoint x="230" y="144" />
            </Array>
          </mxGeometry>
        </mxCell>
        <mxCell id="I3fLwmw5a_jA6q6nvbFF-9" value="&lt;p style=&quot;margin:0px;margin-top:4px;text-align:center;&quot;&gt;&lt;i&gt;&amp;lt;&amp;lt;Interface&amp;gt;&amp;gt;&lt;/i&gt;&lt;br&gt;&lt;b&gt;NestMiddleware&lt;/b&gt;&lt;/p&gt;&lt;hr size=&quot;1&quot;&gt;&lt;p style=&quot;margin:0px;margin-left:4px;&quot;&gt;&lt;br&gt;&lt;/p&gt;&lt;hr size=&quot;1&quot;&gt;&lt;p style=&quot;margin:0px;margin-left:4px;&quot;&gt;+ use(req: Request, res: Response, next: () =&amp;gt; void): void&lt;br&gt;&lt;br&gt;&lt;/p&gt;" style="verticalAlign=top;align=left;overflow=fill;fontSize=12;fontFamily=Helvetica;html=1;whiteSpace=wrap;" vertex="1" parent="WIyWlLk6GJQsqaUBKTNV-1">
          <mxGeometry x="-800" y="24" width="450" height="100" as="geometry" />
        </mxCell>
        <mxCell id="I3fLwmw5a_jA6q6nvbFF-10" value="CookieMandaterMiddleware" style="swimlane;fontStyle=1;align=center;verticalAlign=top;childLayout=stackLayout;horizontal=1;startSize=26;horizontalStack=0;resizeParent=1;resizeParentMax=0;resizeLast=0;collapsible=1;marginBottom=0;whiteSpace=wrap;html=1;" vertex="1" parent="WIyWlLk6GJQsqaUBKTNV-1">
          <mxGeometry x="-747.5" y="220" width="345" height="60" as="geometry" />
        </mxCell>
        <mxCell id="I3fLwmw5a_jA6q6nvbFF-12" value="" style="line;strokeWidth=1;fillColor=none;align=left;verticalAlign=middle;spacingTop=-1;spacingLeft=3;spacingRight=3;rotatable=0;labelPosition=right;points=[];portConstraint=eastwest;strokeColor=inherit;" vertex="1" parent="I3fLwmw5a_jA6q6nvbFF-10">
          <mxGeometry y="26" width="345" height="8" as="geometry" />
        </mxCell>
        <mxCell id="I3fLwmw5a_jA6q6nvbFF-13" value="- getCookieId(req: Request): string" style="text;strokeColor=none;fillColor=none;align=left;verticalAlign=top;spacingLeft=4;spacingRight=4;overflow=hidden;rotatable=0;points=[[0,0.5],[1,0.5]];portConstraint=eastwest;whiteSpace=wrap;html=1;" vertex="1" parent="I3fLwmw5a_jA6q6nvbFF-10">
          <mxGeometry y="34" width="345" height="26" as="geometry" />
        </mxCell>
        <mxCell id="I3fLwmw5a_jA6q6nvbFF-17" value="" style="endArrow=block;endSize=16;endFill=0;html=1;rounded=0;" edge="1" parent="WIyWlLk6GJQsqaUBKTNV-1" source="I3fLwmw5a_jA6q6nvbFF-10" target="I3fLwmw5a_jA6q6nvbFF-9">
          <mxGeometry width="160" relative="1" as="geometry">
            <mxPoint x="-530" y="150" as="sourcePoint" />
            <mxPoint x="-370" y="150" as="targetPoint" />
          </mxGeometry>
        </mxCell>
      </root>
    </mxGraphModel>
  </diagram>
</mxfile>
